<svg width="240" height="240" viewBox="0 0 240 240" fill="none" xmlns="http://www.w3.org/2000/svg">
<g filter="url(#filter0_d_6_121)">
<path d="M132.5 138H107.5C103.358 138 100 134.642 100 130.5V105.5C100 101.358 103.358 98 107.5 98H132.5C136.642 98 140 101.358 140 105.5V130.5C140 134.642 136.642 138 132.5 138Z" fill="white"/>
</g>
<path d="M128.807 115.691C128.418 115.634 128.046 115.49 127.721 115.271C127.395 115.051 127.123 114.76 126.925 114.421C126.727 114.081 126.608 113.701 126.577 113.309C126.546 112.917 126.604 112.524 126.747 112.157C126.837 111.918 126.851 111.656 126.785 111.408C126.719 111.161 126.578 110.94 126.38 110.777C125.508 110.045 124.515 109.47 123.447 109.077C123.203 108.987 122.938 108.975 122.687 109.045C122.437 109.114 122.215 109.261 122.053 109.464C121.81 109.776 121.498 110.028 121.142 110.201C120.786 110.375 120.396 110.465 120 110.465C119.604 110.465 119.214 110.375 118.858 110.201C118.502 110.028 118.19 109.776 117.947 109.464C117.785 109.261 117.563 109.114 117.313 109.045C117.062 108.975 116.797 108.987 116.553 109.077C115.566 109.44 114.644 109.957 113.82 110.611C113.612 110.775 113.463 111.001 113.393 111.257C113.324 111.512 113.338 111.784 113.433 112.031C113.587 112.407 113.651 112.813 113.619 113.219C113.587 113.624 113.461 114.016 113.25 114.363C113.039 114.71 112.75 115.004 112.406 115.219C112.061 115.435 111.671 115.566 111.267 115.604C111.004 115.632 110.757 115.744 110.563 115.922C110.368 116.101 110.237 116.338 110.187 116.597C110.063 117.212 110 117.837 110 118.464C109.999 118.989 110.041 119.513 110.127 120.031C110.169 120.298 110.299 120.545 110.495 120.731C110.691 120.918 110.944 121.035 111.213 121.064C111.627 121.103 112.025 121.24 112.374 121.464C112.724 121.688 113.015 121.993 113.222 122.353C113.43 122.713 113.548 123.117 113.568 123.532C113.587 123.946 113.507 124.36 113.333 124.737C113.22 124.983 113.192 125.259 113.253 125.522C113.315 125.786 113.463 126.021 113.673 126.191C114.54 126.909 115.523 127.475 116.58 127.864C116.715 127.911 116.857 127.935 117 127.937C117.196 127.937 117.389 127.889 117.563 127.799C117.737 127.708 117.887 127.577 118 127.417C118.238 127.071 118.556 126.788 118.928 126.593C119.3 126.398 119.713 126.296 120.133 126.297C120.54 126.298 120.941 126.393 121.305 126.576C121.668 126.759 121.984 127.024 122.227 127.351C122.388 127.568 122.617 127.725 122.877 127.799C123.138 127.872 123.415 127.858 123.667 127.757C124.633 127.368 125.533 126.831 126.333 126.164C126.534 125.998 126.678 125.772 126.742 125.519C126.807 125.266 126.79 125 126.693 124.757C126.537 124.386 126.468 123.983 126.494 123.581C126.519 123.179 126.638 122.788 126.84 122.44C127.042 122.091 127.323 121.795 127.66 121.573C127.996 121.352 128.38 121.212 128.78 121.164C129.039 121.128 129.281 121.01 129.469 120.828C129.657 120.646 129.782 120.409 129.827 120.151C129.934 119.594 129.992 119.03 130 118.464C130 117.867 129.944 117.271 129.833 116.684C129.788 116.431 129.665 116.2 129.481 116.021C129.296 115.843 129.06 115.727 128.807 115.691ZM123.333 118.464C123.333 119.123 123.138 119.768 122.772 120.316C122.405 120.864 121.885 121.291 121.276 121.543C120.667 121.796 119.996 121.862 119.35 121.733C118.703 121.605 118.109 121.287 117.643 120.821C117.177 120.355 116.859 119.761 116.731 119.114C116.602 118.468 116.668 117.797 116.92 117.188C117.173 116.579 117.6 116.059 118.148 115.692C118.696 115.326 119.341 115.131 120 115.131C120.884 115.131 121.732 115.482 122.357 116.107C122.982 116.732 123.333 117.58 123.333 118.464Z" fill="#051F61"/>
<defs>
<filter id="filter0_d_6_121" x="0" y="0" width="240" height="240" filterUnits="userSpaceOnUse" color-interpolation-filters="sRGB">
<feFlood flood-opacity="0" result="BackgroundImageFix"/>
<feColorMatrix in="SourceAlpha" type="matrix" values="0 0 0 0 0 0 0 0 0 0 0 0 0 0 0 0 0 0 127 0" result="hardAlpha"/>
<feOffset dy="2"/>
<feGaussianBlur stdDeviation="50"/>
<feComposite in2="hardAlpha" operator="out"/>
<feColorMatrix type="matrix" values="0 0 0 0 0 0 0 0 0 0 0 0 0 0 0 0 0 0 0.1 0"/>
<feBlend mode="normal" in2="BackgroundImageFix" result="effect1_dropShadow_6_121"/>
<feBlend mode="normal" in="SourceGraphic" in2="effect1_dropShadow_6_121" result="shape"/>
</filter>
</defs>
</svg>
