<svg width="240" height="240" viewBox="0 0 240 240" fill="none" xmlns="http://www.w3.org/2000/svg">
<g filter="url(#filter0_d_6_122)">
<path d="M132.5 138H107.5C103.358 138 100 134.642 100 130.5V105.5C100 101.358 103.358 98 107.5 98H132.5C136.642 98 140 101.358 140 105.5V130.5C140 134.642 136.642 138 132.5 138Z" fill="white"/>
</g>
<path d="M119.334 128C120.842 128 122.105 126.925 122.395 125.5H116.271C116.562 126.925 117.824 128 119.334 128Z" fill="#051F61"/>
<path d="M125.646 120.08C125.625 120.08 125.604 120.084 125.583 120.084C121.906 120.084 118.916 117.092 118.916 113.418C118.916 111.974 119.383 110.639 120.166 109.546V108.834C120.166 108.373 119.794 108 119.334 108C118.874 108 118.5 108.373 118.5 108.834V109.734C115.677 110.14 113.5 112.568 113.5 115.5V117.824C113.5 119.473 112.778 121.029 111.51 122.101C111.186 122.379 111 122.782 111 123.209C111 124.013 111.654 124.668 112.459 124.668H126.209C127.013 124.668 127.668 124.014 127.668 123.209C127.668 122.782 127.481 122.379 127.15 122.095C126.491 121.539 125.985 120.848 125.646 120.08Z" fill="#051F61"/>
<path d="M125.584 108C122.598 108 120.167 110.43 120.167 113.416C120.167 116.402 122.598 118.833 125.584 118.833C128.57 118.833 131 116.404 131 113.416C131 110.429 128.57 108 125.584 108ZM126.416 115.291C126.416 115.636 126.136 115.916 125.791 115.916C125.446 115.916 125.166 115.636 125.166 115.291V112.583H124.75C124.405 112.583 124.125 112.302 124.125 111.958C124.125 111.612 124.405 111.333 124.75 111.333H125.791C126.136 111.333 126.416 111.612 126.416 111.958V115.291Z" fill="#EB5757"/>
<defs>
<filter id="filter0_d_6_122" x="0" y="0" width="240" height="240" filterUnits="userSpaceOnUse" color-interpolation-filters="sRGB">
<feFlood flood-opacity="0" result="BackgroundImageFix"/>
<feColorMatrix in="SourceAlpha" type="matrix" values="0 0 0 0 0 0 0 0 0 0 0 0 0 0 0 0 0 0 127 0" result="hardAlpha"/>
<feOffset dy="2"/>
<feGaussianBlur stdDeviation="50"/>
<feComposite in2="hardAlpha" operator="out"/>
<feColorMatrix type="matrix" values="0 0 0 0 0 0 0 0 0 0 0 0 0 0 0 0 0 0 0.1 0"/>
<feBlend mode="normal" in2="BackgroundImageFix" result="effect1_dropShadow_6_122"/>
<feBlend mode="normal" in="SourceGraphic" in2="effect1_dropShadow_6_122" result="shape"/>
</filter>
</defs>
</svg>
